<?xml version="1.0" encoding="UTF-8" standalone="no"?>
<!DOCTYPE svg PUBLIC "-//W3C//DTD SVG 1.1//EN"
 "http://www.w3.org/Graphics/SVG/1.1/DTD/svg11.dtd">
<!-- Generated by graphviz version 2.43.0 (0)
 -->
<!-- Title: G Pages: 1 -->
<svg width="474pt" height="553pt"
 viewBox="0.00 0.00 474.00 553.00" xmlns="http://www.w3.org/2000/svg" xmlns:xlink="http://www.w3.org/1999/xlink">
<g id="graph0" class="graph" transform="scale(1 1) rotate(0) translate(4 549)">
<title>G</title>
<polygon fill="white" stroke="transparent" points="-4,4 -4,-549 470,-549 470,4 -4,4"/>
<!-- 140625389890024 -->
<g id="node1" class="node">
<title>140625389890024</title>
<polygon fill="none" stroke="black" points="23,-498.5 23,-544.5 443,-544.5 443,-498.5 23,-498.5"/>
<text text-anchor="middle" x="130.5" y="-517.8" font-family="Times,serif" font-size="14.00">conv2d_1_input: InputLayer</text>
<polyline fill="none" stroke="black" points="238,-498.5 238,-544.5 "/>
<text text-anchor="middle" x="272" y="-529.3" font-family="Times,serif" font-size="14.00">input:</text>
<polyline fill="none" stroke="black" points="238,-521.5 306,-521.5 "/>
<text text-anchor="middle" x="272" y="-506.3" font-family="Times,serif" font-size="14.00">output:</text>
<polyline fill="none" stroke="black" points="306,-498.5 306,-544.5 "/>
<text text-anchor="middle" x="374.5" y="-529.3" font-family="Times,serif" font-size="14.00">(None, 28, 28, 1)</text>
<polyline fill="none" stroke="black" points="306,-521.5 443,-521.5 "/>
<text text-anchor="middle" x="374.5" y="-506.3" font-family="Times,serif" font-size="14.00">(None, 28, 28, 1)</text>
</g>
<!-- 140625389890136 -->
<g id="node2" class="node">
<title>140625389890136</title>
<polygon fill="none" stroke="black" points="51.5,-415.5 51.5,-461.5 414.5,-461.5 414.5,-415.5 51.5,-415.5"/>
<text text-anchor="middle" x="126" y="-434.8" font-family="Times,serif" font-size="14.00">conv2d_1: Conv2D</text>
<polyline fill="none" stroke="black" points="200.5,-415.5 200.5,-461.5 "/>
<text text-anchor="middle" x="234.5" y="-446.3" font-family="Times,serif" font-size="14.00">input:</text>
<polyline fill="none" stroke="black" points="200.5,-438.5 268.5,-438.5 "/>
<text text-anchor="middle" x="234.5" y="-423.3" font-family="Times,serif" font-size="14.00">output:</text>
<polyline fill="none" stroke="black" points="268.5,-415.5 268.5,-461.5 "/>
<text text-anchor="middle" x="341.5" y="-446.3" font-family="Times,serif" font-size="14.00">(None, 28, 28, 1)</text>
<polyline fill="none" stroke="black" points="268.5,-438.5 414.5,-438.5 "/>
<text text-anchor="middle" x="341.5" y="-423.3" font-family="Times,serif" font-size="14.00">(None, 26, 26, 32)</text>
</g>
<!-- 140625389890024&#45;&gt;140625389890136 -->
<g id="edge1" class="edge">
<title>140625389890024&#45;&gt;140625389890136</title>
<path fill="none" stroke="black" d="M233,-498.37C233,-490.15 233,-480.66 233,-471.73"/>
<polygon fill="black" stroke="black" points="236.5,-471.61 233,-461.61 229.5,-471.61 236.5,-471.61"/>
</g>
<!-- 140625389891368 -->
<g id="node3" class="node">
<title>140625389891368</title>
<polygon fill="none" stroke="black" points="51.5,-332.5 51.5,-378.5 414.5,-378.5 414.5,-332.5 51.5,-332.5"/>
<text text-anchor="middle" x="126" y="-351.8" font-family="Times,serif" font-size="14.00">conv2d_2: Conv2D</text>
<polyline fill="none" stroke="black" points="200.5,-332.5 200.5,-378.5 "/>
<text text-anchor="middle" x="234.5" y="-363.3" font-family="Times,serif" font-size="14.00">input:</text>
<polyline fill="none" stroke="black" points="200.5,-355.5 268.5,-355.5 "/>
<text text-anchor="middle" x="234.5" y="-340.3" font-family="Times,serif" font-size="14.00">output:</text>
<polyline fill="none" stroke="black" points="268.5,-332.5 268.5,-378.5 "/>
<text text-anchor="middle" x="341.5" y="-363.3" font-family="Times,serif" font-size="14.00">(None, 26, 26, 32)</text>
<polyline fill="none" stroke="black" points="268.5,-355.5 414.5,-355.5 "/>
<text text-anchor="middle" x="341.5" y="-340.3" font-family="Times,serif" font-size="14.00">(None, 24, 24, 32)</text>
</g>
<!-- 140625389890136&#45;&gt;140625389891368 -->
<g id="edge2" class="edge">
<title>140625389890136&#45;&gt;140625389891368</title>
<path fill="none" stroke="black" d="M233,-415.37C233,-407.15 233,-397.66 233,-388.73"/>
<polygon fill="black" stroke="black" points="236.5,-388.61 233,-378.61 229.5,-388.61 236.5,-388.61"/>
</g>
<!-- 140625381223616 -->
<g id="node4" class="node">
<title>140625381223616</title>
<polygon fill="none" stroke="black" points="0,-249.5 0,-295.5 466,-295.5 466,-249.5 0,-249.5"/>
<text text-anchor="middle" x="126" y="-268.8" font-family="Times,serif" font-size="14.00">max_pooling2d_1: MaxPooling2D</text>
<polyline fill="none" stroke="black" points="252,-249.5 252,-295.5 "/>
<text text-anchor="middle" x="286" y="-280.3" font-family="Times,serif" font-size="14.00">input:</text>
<polyline fill="none" stroke="black" points="252,-272.5 320,-272.5 "/>
<text text-anchor="middle" x="286" y="-257.3" font-family="Times,serif" font-size="14.00">output:</text>
<polyline fill="none" stroke="black" points="320,-249.5 320,-295.5 "/>
<text text-anchor="middle" x="393" y="-280.3" font-family="Times,serif" font-size="14.00">(None, 24, 24, 32)</text>
<polyline fill="none" stroke="black" points="320,-272.5 466,-272.5 "/>
<text text-anchor="middle" x="393" y="-257.3" font-family="Times,serif" font-size="14.00">(None, 12, 12, 32)</text>
</g>
<!-- 140625389891368&#45;&gt;140625381223616 -->
<g id="edge3" class="edge">
<title>140625389891368&#45;&gt;140625381223616</title>
<path fill="none" stroke="black" d="M233,-332.37C233,-324.15 233,-314.66 233,-305.73"/>
<polygon fill="black" stroke="black" points="236.5,-305.61 233,-295.61 229.5,-305.61 236.5,-305.61"/>
</g>
<!-- 140625381344424 -->
<g id="node5" class="node">
<title>140625381344424</title>
<polygon fill="none" stroke="black" points="48,-166.5 48,-212.5 418,-212.5 418,-166.5 48,-166.5"/>
<text text-anchor="middle" x="126" y="-185.8" font-family="Times,serif" font-size="14.00">dropout_1: Dropout</text>
<polyline fill="none" stroke="black" points="204,-166.5 204,-212.5 "/>
<text text-anchor="middle" x="238" y="-197.3" font-family="Times,serif" font-size="14.00">input:</text>
<polyline fill="none" stroke="black" points="204,-189.5 272,-189.5 "/>
<text text-anchor="middle" x="238" y="-174.3" font-family="Times,serif" font-size="14.00">output:</text>
<polyline fill="none" stroke="black" points="272,-166.5 272,-212.5 "/>
<text text-anchor="middle" x="345" y="-197.3" font-family="Times,serif" font-size="14.00">(None, 12, 12, 32)</text>
<polyline fill="none" stroke="black" points="272,-189.5 418,-189.5 "/>
<text text-anchor="middle" x="345" y="-174.3" font-family="Times,serif" font-size="14.00">(None, 12, 12, 32)</text>
</g>
<!-- 140625381223616&#45;&gt;140625381344424 -->
<g id="edge4" class="edge">
<title>140625381223616&#45;&gt;140625381344424</title>
<path fill="none" stroke="black" d="M233,-249.37C233,-241.15 233,-231.66 233,-222.73"/>
<polygon fill="black" stroke="black" points="236.5,-222.61 233,-212.61 229.5,-222.61 236.5,-222.61"/>
</g>
<!-- 140625381344536 -->
<g id="node6" class="node">
<title>140625381344536</title>
<polygon fill="none" stroke="black" points="56,-83.5 56,-129.5 410,-129.5 410,-83.5 56,-83.5"/>
<text text-anchor="middle" x="126" y="-102.8" font-family="Times,serif" font-size="14.00">flatten_1: Flatten</text>
<polyline fill="none" stroke="black" points="196,-83.5 196,-129.5 "/>
<text text-anchor="middle" x="230" y="-114.3" font-family="Times,serif" font-size="14.00">input:</text>
<polyline fill="none" stroke="black" points="196,-106.5 264,-106.5 "/>
<text text-anchor="middle" x="230" y="-91.3" font-family="Times,serif" font-size="14.00">output:</text>
<polyline fill="none" stroke="black" points="264,-83.5 264,-129.5 "/>
<text text-anchor="middle" x="337" y="-114.3" font-family="Times,serif" font-size="14.00">(None, 12, 12, 32)</text>
<polyline fill="none" stroke="black" points="264,-106.5 410,-106.5 "/>
<text text-anchor="middle" x="337" y="-91.3" font-family="Times,serif" font-size="14.00">(None, 4608)</text>
</g>
<!-- 140625381344424&#45;&gt;140625381344536 -->
<g id="edge5" class="edge">
<title>140625381344424&#45;&gt;140625381344536</title>
<path fill="none" stroke="black" d="M233,-166.37C233,-158.15 233,-148.66 233,-139.73"/>
<polygon fill="black" stroke="black" points="236.5,-139.61 233,-129.61 229.5,-139.61 236.5,-139.61"/>
</g>
<!-- 140625381403840 -->
<g id="node7" class="node">
<title>140625381403840</title>
<polygon fill="none" stroke="black" points="80,-0.5 80,-46.5 386,-46.5 386,-0.5 80,-0.5"/>
<text text-anchor="middle" x="144" y="-19.8" font-family="Times,serif" font-size="14.00">dense_1: Dense</text>
<polyline fill="none" stroke="black" points="208,-0.5 208,-46.5 "/>
<text text-anchor="middle" x="242" y="-31.3" font-family="Times,serif" font-size="14.00">input:</text>
<polyline fill="none" stroke="black" points="208,-23.5 276,-23.5 "/>
<text text-anchor="middle" x="242" y="-8.3" font-family="Times,serif" font-size="14.00">output:</text>
<polyline fill="none" stroke="black" points="276,-0.5 276,-46.5 "/>
<text text-anchor="middle" x="331" y="-31.3" font-family="Times,serif" font-size="14.00">(None, 4608)</text>
<polyline fill="none" stroke="black" points="276,-23.5 386,-23.5 "/>
<text text-anchor="middle" x="331" y="-8.3" font-family="Times,serif" font-size="14.00">(None, 10)</text>
</g>
<!-- 140625381344536&#45;&gt;140625381403840 -->
<g id="edge6" class="edge">
<title>140625381344536&#45;&gt;140625381403840</title>
<path fill="none" stroke="black" d="M233,-83.37C233,-75.15 233,-65.66 233,-56.73"/>
<polygon fill="black" stroke="black" points="236.5,-56.61 233,-46.61 229.5,-56.61 236.5,-56.61"/>
</g>
</g>
</svg>
